<mxfile host="65bd71144e">
    <diagram id="-AUvoxmyR2D6E3jA4wAn" name="Page-1">
        <mxGraphModel dx="907" dy="667" grid="1" gridSize="10" guides="1" tooltips="1" connect="1" arrows="1" fold="1" page="1" pageScale="1" pageWidth="827" pageHeight="1169" math="0" shadow="1">
            <root>
                <mxCell id="0"/>
                <mxCell id="1" parent="0"/>
                <object label="%name%" block="Inport" type="block" name="in" placeholders="1" id="84">
                    <mxCell style="ellipse;whiteSpace=wrap;html=1;fontSize=11;points=[[1,0.5,0,0,0]];metaEdit=1;snapToPoint=0;resizable=0;rotatable=0;allowArrows=0;container=1;collapsible=0;spacingTop=-5;movable=1;connectable=0;" vertex="1" parent="1">
                        <mxGeometry x="109.99999999999989" y="30" width="50" height="30" as="geometry"/>
                    </mxCell>
                </object>
                <object label="&lt;p style=&quot;line-height: 100%;&quot;&gt;&lt;br&gt;&lt;/p&gt;" type="outport" name="out" id="85">
                    <mxCell style="whiteSpace=wrap;html=1;aspect=fixed;snapToPoint=1;resizable=0;metaEdit=1;points=[[1,0.5,0,0,0]];editable=1;movable=0;rotatable=1;deletable=1;locked=0;connectable=1;noLabel=0;overflow=visible;fillColor=#000000;" vertex="1" parent="84">
                        <mxGeometry x="45" y="10" width="10" height="10" as="geometry"/>
                    </mxCell>
                </object>
                <object label="%name%" block="Outport" type="block" name="out" placeholders="1" id="86">
                    <mxCell style="ellipse;whiteSpace=wrap;html=1;fontSize=11;points=[[0.02,0.5,0,0,0]];metaEdit=1;snapToPoint=0;resizable=0;rotatable=0;allowArrows=0;container=1;collapsible=0;spacingTop=-4;movable=1;connectable=0;" vertex="1" parent="1">
                        <mxGeometry x="570" y="65" width="50" height="30" as="geometry"/>
                    </mxCell>
                </object>
                <object label="&lt;p style=&quot;line-height: 100%;&quot;&gt;&lt;br&gt;&lt;/p&gt;" type="inport" name="in" id="87">
                    <mxCell style="whiteSpace=wrap;html=1;aspect=fixed;snapToPoint=1;resizable=0;metaEdit=1;points=[[0,0.5,0,0,0]];editable=1;movable=0;rotatable=1;deletable=1;locked=0;connectable=1;noLabel=0;overflow=visible;direction=east;" vertex="1" parent="86">
                        <mxGeometry x="-4" y="10" width="10" height="10" as="geometry"/>
                    </mxCell>
                </object>
                <object label="%signs%" block="Add" signs="&quot;+--&quot;" type="block" name="" placeholders="1" id="88">
                    <mxCell style="rounded=0;whiteSpace=wrap;html=1;fontSize=11;points=[[0,0.24,0,0,0],[0,0.76,0,0,0],[1,0.5,0,0,0]];metaEdit=1;snapToPoint=0;allowArrows=0;resizable=0;container=1;collapsible=0;movable=1;connectable=0;" vertex="1" parent="1">
                        <mxGeometry x="230" y="40" width="40" height="80" as="geometry"/>
                    </mxCell>
                </object>
                <object label="&lt;p style=&quot;line-height: 100%;&quot;&gt;&lt;br&gt;&lt;/p&gt;" type="outport" name="out" id="89">
                    <mxCell style="whiteSpace=wrap;html=1;aspect=fixed;snapToPoint=1;resizable=0;metaEdit=1;points=[[1,0.5,0,0,0]];editable=1;movable=0;rotatable=1;deletable=1;locked=0;connectable=1;noLabel=0;overflow=visible;fillColor=#000000;" vertex="1" parent="88">
                        <mxGeometry x="35" y="34.285714285714285" width="10" height="10" as="geometry"/>
                    </mxCell>
                </object>
                <object label="&lt;p style=&quot;line-height: 100%;&quot;&gt;&lt;br&gt;&lt;/p&gt;" type="inport" name="in1" id="90">
                    <mxCell style="whiteSpace=wrap;html=1;aspect=fixed;snapToPoint=1;resizable=0;metaEdit=1;points=[[0,0.5,0,0,0]];editable=1;movable=0;rotatable=1;deletable=1;locked=0;connectable=1;noLabel=0;overflow=visible;direction=east;" vertex="1" parent="88">
                        <mxGeometry x="-5" y="9" width="10" height="10" as="geometry"/>
                    </mxCell>
                </object>
                <object label="&lt;p style=&quot;line-height: 100%;&quot;&gt;&lt;br&gt;&lt;/p&gt;" type="inport" name="in2" id="91">
                    <mxCell style="whiteSpace=wrap;html=1;aspect=fixed;snapToPoint=1;resizable=0;metaEdit=1;points=[[0,0.5,0,0,0]];editable=1;movable=0;rotatable=1;deletable=1;locked=0;connectable=1;noLabel=0;overflow=visible;direction=east;" vertex="1" parent="88">
                        <mxGeometry x="-5" y="26" width="10" height="10" as="geometry"/>
                    </mxCell>
                </object>
                <object label="&lt;p style=&quot;line-height: 100%;&quot;&gt;&lt;br&gt;&lt;/p&gt;" type="inport" name="in3" id="92">
                    <mxCell style="whiteSpace=wrap;html=1;aspect=fixed;snapToPoint=1;resizable=0;metaEdit=1;points=[[0,0.5,0,0,0]];editable=1;movable=0;rotatable=1;deletable=1;locked=0;connectable=1;noLabel=0;overflow=visible;direction=east;" vertex="1" parent="88">
                        <mxGeometry x="-5" y="43" width="10" height="10" as="geometry"/>
                    </mxCell>
                </object>
                <mxCell id="94" style="edgeStyle=orthogonalEdgeStyle;html=1;exitX=1;exitY=0.5;exitDx=0;exitDy=0;exitPerimeter=0;entryX=0;entryY=0.5;entryDx=0;entryDy=0;entryPerimeter=0;" edge="1" parent="1" source="85" target="90">
                    <mxGeometry relative="1" as="geometry"/>
                </mxCell>
                <object label="%K%" block="Gain" K="1/L" type="block" name="" placeholders="1" id="95">
                    <mxCell style="triangle;html=1;points=[[0,0.5,0,0,0],[1,0.5,0,0,0]];whiteSpace=wrap;fontSize=11;align=center;spacingLeft=-7;metaEdit=1;snapToPoint=0;allowArrows=0;resizable=0;rotatable=0;container=1;collapsible=0;movable=1;connectable=0;" vertex="1" parent="1">
                        <mxGeometry x="310" y="55" width="50" height="50" as="geometry"/>
                    </mxCell>
                </object>
                <object label="&lt;p style=&quot;line-height: 100%;&quot;&gt;&lt;br&gt;&lt;/p&gt;" type="inport" name="in" id="96">
                    <mxCell style="whiteSpace=wrap;html=1;aspect=fixed;snapToPoint=1;resizable=0;metaEdit=1;points=[[0,0.5,0,0,0]];editable=1;movable=0;rotatable=1;deletable=1;locked=0;connectable=1;noLabel=0;overflow=visible;direction=east;" vertex="1" parent="95">
                        <mxGeometry x="-5" y="20" width="10" height="10" as="geometry"/>
                    </mxCell>
                </object>
                <object label="&lt;p style=&quot;line-height: 100%;&quot;&gt;&lt;br&gt;&lt;/p&gt;" type="outport" name="out" id="97">
                    <mxCell style="whiteSpace=wrap;html=1;aspect=fixed;snapToPoint=1;resizable=0;metaEdit=1;points=[[1,0.5,0,0,0]];editable=1;movable=0;rotatable=1;deletable=1;locked=0;connectable=1;noLabel=0;overflow=visible;fillColor=#000000;" vertex="1" parent="95">
                        <mxGeometry x="45" y="20" width="10" height="10" as="geometry"/>
                    </mxCell>
                </object>
                <object label="1/s" block="Integrator" initialcondition="0" type="block" name="" id="98">
                    <mxCell style="whiteSpace=wrap;html=1;aspect=fixed;fontSize=11;points=[[0,0.5,0,0,0],[1,0.5,0,0,0]];metaEdit=1;snapToPoint=0;resizable=0;rotatable=0;allowArrows=0;container=1;collapsible=0;movable=1;connectable=0;" vertex="1" parent="1">
                        <mxGeometry x="405" y="60" width="40" height="40" as="geometry"/>
                    </mxCell>
                </object>
                <object label="&lt;p style=&quot;line-height: 100%;&quot;&gt;&lt;br&gt;&lt;/p&gt;" type="outport" name="out" id="99">
                    <mxCell style="whiteSpace=wrap;html=1;aspect=fixed;snapToPoint=1;resizable=0;metaEdit=1;points=[[1,0.5,0,0,0]];editable=1;movable=0;rotatable=1;deletable=1;locked=0;connectable=1;noLabel=0;overflow=visible;fillColor=#000000;" vertex="1" parent="98">
                        <mxGeometry x="35" y="15" width="10" height="10" as="geometry"/>
                    </mxCell>
                </object>
                <object label="&lt;p style=&quot;line-height: 100%;&quot;&gt;&lt;br&gt;&lt;/p&gt;" type="inport" name="in" id="100">
                    <mxCell style="whiteSpace=wrap;html=1;aspect=fixed;snapToPoint=1;resizable=0;metaEdit=1;points=[[0,0.5,0,0,0]];editable=1;movable=0;rotatable=1;deletable=1;locked=0;connectable=1;noLabel=0;overflow=visible;direction=east;" vertex="1" parent="98">
                        <mxGeometry x="-5" y="15" width="10" height="10" as="geometry"/>
                    </mxCell>
                </object>
                <mxCell id="101" style="edgeStyle=orthogonalEdgeStyle;html=1;exitX=1;exitY=0.5;exitDx=0;exitDy=0;exitPerimeter=0;entryX=0;entryY=0.5;entryDx=0;entryDy=0;entryPerimeter=0;" edge="1" parent="1" source="97" target="100">
                    <mxGeometry relative="1" as="geometry"/>
                </mxCell>
                <mxCell id="102" style="edgeStyle=orthogonalEdgeStyle;html=1;exitX=1;exitY=0.5;exitDx=0;exitDy=0;exitPerimeter=0;entryX=0;entryY=0.5;entryDx=0;entryDy=0;entryPerimeter=0;" edge="1" parent="1" source="99" target="87">
                    <mxGeometry relative="1" as="geometry"/>
                </mxCell>
                <mxCell id="103" style="edgeStyle=orthogonalEdgeStyle;html=1;exitX=1;exitY=0.5;exitDx=0;exitDy=0;exitPerimeter=0;entryX=0;entryY=0.5;entryDx=0;entryDy=0;entryPerimeter=0;" edge="1" parent="1" source="89" target="96">
                    <mxGeometry relative="1" as="geometry"/>
                </mxCell>
                <object label="%K%" block="Gain" K="R" type="block" name="" placeholders="1" id="104">
                    <mxCell style="triangle;html=1;points=[[0,0.5,0,0,0],[1,0.5,0,0,0]];whiteSpace=wrap;fontSize=11;align=center;spacingLeft=-7;metaEdit=1;snapToPoint=0;allowArrows=0;resizable=0;rotatable=0;container=1;collapsible=0;movable=1;connectable=0;" vertex="1" parent="1">
                        <mxGeometry x="530" y="150" width="50" height="50" as="geometry"/>
                    </mxCell>
                </object>
                <object label="&lt;p style=&quot;line-height: 100%;&quot;&gt;&lt;br&gt;&lt;/p&gt;" type="inport" name="in" id="105">
                    <mxCell style="whiteSpace=wrap;html=1;aspect=fixed;snapToPoint=1;resizable=0;metaEdit=1;points=[[0,0.5,0,0,0]];editable=1;movable=0;rotatable=1;deletable=1;locked=0;connectable=1;noLabel=0;overflow=visible;direction=east;" vertex="1" parent="104">
                        <mxGeometry x="-5" y="20" width="10" height="10" as="geometry"/>
                    </mxCell>
                </object>
                <object label="&lt;p style=&quot;line-height: 100%;&quot;&gt;&lt;br&gt;&lt;/p&gt;" type="outport" name="out" id="106">
                    <mxCell style="whiteSpace=wrap;html=1;aspect=fixed;snapToPoint=1;resizable=0;metaEdit=1;points=[[1,0.5,0,0,0]];editable=1;movable=0;rotatable=1;deletable=1;locked=0;connectable=1;noLabel=0;overflow=visible;fillColor=#000000;" vertex="1" parent="104">
                        <mxGeometry x="45" y="20" width="10" height="10" as="geometry"/>
                    </mxCell>
                </object>
                <object label="%K%" block="Gain" K="1/C" type="block" name="" placeholders="1" id="107">
                    <mxCell style="triangle;html=1;points=[[0,0.5,0,0,0],[1,0.5,0,0,0]];whiteSpace=wrap;fontSize=11;align=center;spacingLeft=-7;metaEdit=1;snapToPoint=0;allowArrows=0;resizable=0;rotatable=0;container=1;collapsible=0;movable=1;connectable=0;" vertex="1" parent="1">
                        <mxGeometry x="530" y="220" width="50" height="50" as="geometry"/>
                    </mxCell>
                </object>
                <object label="&lt;p style=&quot;line-height: 100%;&quot;&gt;&lt;br&gt;&lt;/p&gt;" type="inport" name="in" id="108">
                    <mxCell style="whiteSpace=wrap;html=1;aspect=fixed;snapToPoint=1;resizable=0;metaEdit=1;points=[[0,0.5,0,0,0]];editable=1;movable=0;rotatable=1;deletable=1;locked=0;connectable=1;noLabel=0;overflow=visible;direction=east;" vertex="1" parent="107">
                        <mxGeometry x="-5" y="20" width="10" height="10" as="geometry"/>
                    </mxCell>
                </object>
                <object label="&lt;p style=&quot;line-height: 100%;&quot;&gt;&lt;br&gt;&lt;/p&gt;" type="outport" name="out" id="109">
                    <mxCell style="whiteSpace=wrap;html=1;aspect=fixed;snapToPoint=1;resizable=0;metaEdit=1;points=[[1,0.5,0,0,0]];editable=1;movable=0;rotatable=1;deletable=1;locked=0;connectable=1;noLabel=0;overflow=visible;fillColor=#000000;" vertex="1" parent="107">
                        <mxGeometry x="45" y="20" width="10" height="10" as="geometry"/>
                    </mxCell>
                </object>
                <mxCell id="110" style="edgeStyle=orthogonalEdgeStyle;html=1;exitX=1;exitY=0.5;exitDx=0;exitDy=0;exitPerimeter=0;entryX=0;entryY=0.5;entryDx=0;entryDy=0;entryPerimeter=0;" edge="1" parent="1" source="99" target="105">
                    <mxGeometry relative="1" as="geometry"/>
                </mxCell>
                <mxCell id="111" style="edgeStyle=orthogonalEdgeStyle;html=1;exitX=1;exitY=0.5;exitDx=0;exitDy=0;exitPerimeter=0;entryX=0;entryY=0.5;entryDx=0;entryDy=0;entryPerimeter=0;" edge="1" parent="1" source="99" target="108">
                    <mxGeometry relative="1" as="geometry"/>
                </mxCell>
                <object label="1/s" block="Integrator" initialcondition="0" type="block" name="" id="112">
                    <mxCell style="whiteSpace=wrap;html=1;aspect=fixed;fontSize=11;points=[[0,0.5,0,0,0],[1,0.5,0,0,0]];metaEdit=1;snapToPoint=0;resizable=0;rotatable=0;allowArrows=0;container=1;collapsible=0;movable=1;connectable=0;" vertex="1" parent="1">
                        <mxGeometry x="610" y="225" width="40" height="40" as="geometry"/>
                    </mxCell>
                </object>
                <object label="&lt;p style=&quot;line-height: 100%;&quot;&gt;&lt;br&gt;&lt;/p&gt;" type="outport" name="out" id="113">
                    <mxCell style="whiteSpace=wrap;html=1;aspect=fixed;snapToPoint=1;resizable=0;metaEdit=1;points=[[1,0.5,0,0,0]];editable=1;movable=0;rotatable=1;deletable=1;locked=0;connectable=1;noLabel=0;overflow=visible;fillColor=#000000;" vertex="1" parent="112">
                        <mxGeometry x="35" y="15" width="10" height="10" as="geometry"/>
                    </mxCell>
                </object>
                <object label="&lt;p style=&quot;line-height: 100%;&quot;&gt;&lt;br&gt;&lt;/p&gt;" type="inport" name="in" id="114">
                    <mxCell style="whiteSpace=wrap;html=1;aspect=fixed;snapToPoint=1;resizable=0;metaEdit=1;points=[[0,0.5,0,0,0]];editable=1;movable=0;rotatable=1;deletable=1;locked=0;connectable=1;noLabel=0;overflow=visible;direction=east;" vertex="1" parent="112">
                        <mxGeometry x="-5" y="15" width="10" height="10" as="geometry"/>
                    </mxCell>
                </object>
                <mxCell id="115" style="edgeStyle=orthogonalEdgeStyle;html=1;exitX=1;exitY=0.5;exitDx=0;exitDy=0;exitPerimeter=0;entryX=0;entryY=0.5;entryDx=0;entryDy=0;entryPerimeter=0;" edge="1" parent="1" source="106" target="91">
                    <mxGeometry relative="1" as="geometry">
                        <Array as="points">
                            <mxPoint x="595" y="175"/>
                            <mxPoint x="595" y="140"/>
                            <mxPoint x="215" y="140"/>
                            <mxPoint x="215" y="71"/>
                        </Array>
                    </mxGeometry>
                </mxCell>
                <mxCell id="116" style="edgeStyle=orthogonalEdgeStyle;html=1;exitX=1;exitY=0.5;exitDx=0;exitDy=0;exitPerimeter=0;entryX=0;entryY=0.5;entryDx=0;entryDy=0;entryPerimeter=0;" edge="1" parent="1" source="109" target="114">
                    <mxGeometry relative="1" as="geometry"/>
                </mxCell>
                <mxCell id="117" style="edgeStyle=orthogonalEdgeStyle;html=1;exitX=1;exitY=0.5;exitDx=0;exitDy=0;exitPerimeter=0;entryX=0;entryY=0.5;entryDx=0;entryDy=0;entryPerimeter=0;" edge="1" parent="1" source="113" target="92">
                    <mxGeometry relative="1" as="geometry">
                        <Array as="points">
                            <mxPoint x="665" y="245"/>
                            <mxPoint x="665" y="300"/>
                            <mxPoint x="215" y="300"/>
                            <mxPoint x="215" y="88"/>
                        </Array>
                    </mxGeometry>
                </mxCell>
            </root>
        </mxGraphModel>
    </diagram>
</mxfile>